<svg width="19" height="21" viewBox="0 0 19 21" fill="none" xmlns="http://www.w3.org/2000/svg">
<path d="M0.00305176 2.95807C0.00305176 1.32437 1.3462 0 3.00305 0V0C4.65991 0 6.00305 1.32437 6.00305 2.95807V17.7484C6.00305 19.3821 4.65991 20.7065 3.00305 20.7065V20.7065C1.3462 20.7065 0.00305176 19.3821 0.00305176 17.7484V2.95807Z" fill="#E1E1E6"/>
<path d="M12.0031 2.95807C12.0031 1.32437 13.3462 0 15.0031 0V0C16.6599 0 18.0031 1.32437 18.0031 2.95807V17.7484C18.0031 19.3821 16.6599 20.7065 15.0031 20.7065V20.7065C13.3462 20.7065 12.0031 19.3821 12.0031 17.7484V2.95807Z" fill="#E1E1E6"/>
</svg>
