<svg
      xmlns="http://www.w3.org/2000/svg"
      width="28"
      height="17"
      fill="none"
      viewBox="0 0 28 17"
    >
      <path
        fill="#E1E1E6"
        d="M27.143 6.74L16.515.38A1.719 1.719 0 0014.766.36a1.9 1.9 0 00-.943 1.658v4.448L3.654.38A1.718 1.718 0 001.905.358a1.898 1.898 0 00-.943 1.658v12.435a1.898 1.898 0 00.943 1.659 1.718 1.718 0 001.75-.022l10.168-6.089v4.45a1.899 1.899 0 00.943 1.66 1.719 1.719 0 001.75-.021L27.142 9.73a1.76 1.76 0 000-2.982V6.74z"
      ></path>
    </svg>